<mxfile host="app.diagrams.net" modified="2021-11-10T17:02:58.663Z" agent="5.0 (Windows NT 10.0; Win64; x64) AppleWebKit/537.36 (KHTML, like Gecko) Chrome/94.0.4606.61 Safari/537.36" etag="-b920Ni2nXONebEyn-0V" version="15.7.3" type="github">
  <diagram id="C5RBs43oDa-KdzZeNtuy" name="Page-1">
    <mxGraphModel dx="942" dy="1764" grid="1" gridSize="10" guides="1" tooltips="1" connect="1" arrows="1" fold="1" page="1" pageScale="1" pageWidth="827" pageHeight="1169" math="0" shadow="0">
      <root>
        <mxCell id="WIyWlLk6GJQsqaUBKTNV-0" />
        <mxCell id="WIyWlLk6GJQsqaUBKTNV-1" parent="WIyWlLk6GJQsqaUBKTNV-0" />
        <mxCell id="9kUBxG-Cbkqe4WH1oa9A-61" value="" style="rounded=0;whiteSpace=wrap;html=1;fillColor=none;dashed=1;strokeWidth=2;strokeColor=#007FFF;" vertex="1" parent="WIyWlLk6GJQsqaUBKTNV-1">
          <mxGeometry x="780" y="160" width="600" height="260" as="geometry" />
        </mxCell>
        <mxCell id="9kUBxG-Cbkqe4WH1oa9A-80" style="edgeStyle=orthogonalEdgeStyle;rounded=0;orthogonalLoop=1;jettySize=auto;html=1;exitX=1;exitY=0.5;exitDx=0;exitDy=0;entryX=0.5;entryY=0;entryDx=0;entryDy=0;" edge="1" parent="WIyWlLk6GJQsqaUBKTNV-1" source="9kUBxG-Cbkqe4WH1oa9A-0" target="9kUBxG-Cbkqe4WH1oa9A-69">
          <mxGeometry relative="1" as="geometry">
            <Array as="points">
              <mxPoint x="580" y="-420" />
              <mxPoint x="580" y="-460" />
              <mxPoint x="800" y="-460" />
            </Array>
          </mxGeometry>
        </mxCell>
        <mxCell id="9kUBxG-Cbkqe4WH1oa9A-83" style="edgeStyle=orthogonalEdgeStyle;rounded=0;orthogonalLoop=1;jettySize=auto;html=1;exitX=0.5;exitY=1;exitDx=0;exitDy=0;" edge="1" parent="WIyWlLk6GJQsqaUBKTNV-1" source="9kUBxG-Cbkqe4WH1oa9A-0">
          <mxGeometry relative="1" as="geometry">
            <mxPoint x="480" y="-350" as="targetPoint" />
          </mxGeometry>
        </mxCell>
        <mxCell id="9kUBxG-Cbkqe4WH1oa9A-0" value="山顶直/散射观测值" style="shape=parallelogram;perimeter=parallelogramPerimeter;whiteSpace=wrap;html=1;fixedSize=1;" vertex="1" parent="WIyWlLk6GJQsqaUBKTNV-1">
          <mxGeometry x="400" y="-440" width="160" height="40" as="geometry" />
        </mxCell>
        <mxCell id="9kUBxG-Cbkqe4WH1oa9A-84" style="edgeStyle=orthogonalEdgeStyle;rounded=0;orthogonalLoop=1;jettySize=auto;html=1;exitX=0.5;exitY=1;exitDx=0;exitDy=0;" edge="1" parent="WIyWlLk6GJQsqaUBKTNV-1" source="9kUBxG-Cbkqe4WH1oa9A-4">
          <mxGeometry relative="1" as="geometry">
            <mxPoint x="480" y="-230" as="targetPoint" />
          </mxGeometry>
        </mxCell>
        <mxCell id="9kUBxG-Cbkqe4WH1oa9A-86" style="edgeStyle=orthogonalEdgeStyle;rounded=0;orthogonalLoop=1;jettySize=auto;html=1;exitX=0;exitY=0.5;exitDx=0;exitDy=0;" edge="1" parent="WIyWlLk6GJQsqaUBKTNV-1" source="9kUBxG-Cbkqe4WH1oa9A-4">
          <mxGeometry relative="1" as="geometry">
            <mxPoint x="380" y="-230" as="targetPoint" />
          </mxGeometry>
        </mxCell>
        <mxCell id="9kUBxG-Cbkqe4WH1oa9A-4" value="判断研究区晴天/云天" style="rhombus;whiteSpace=wrap;html=1;" vertex="1" parent="WIyWlLk6GJQsqaUBKTNV-1">
          <mxGeometry x="400" y="-350" width="160" height="60" as="geometry" />
        </mxCell>
        <mxCell id="9kUBxG-Cbkqe4WH1oa9A-23" style="edgeStyle=orthogonalEdgeStyle;rounded=0;orthogonalLoop=1;jettySize=auto;html=1;exitX=0.5;exitY=1;exitDx=0;exitDy=0;entryX=0.5;entryY=0;entryDx=0;entryDy=0;" edge="1" parent="WIyWlLk6GJQsqaUBKTNV-1" source="9kUBxG-Cbkqe4WH1oa9A-13" target="9kUBxG-Cbkqe4WH1oa9A-14">
          <mxGeometry relative="1" as="geometry" />
        </mxCell>
        <mxCell id="9kUBxG-Cbkqe4WH1oa9A-13" value="HLS反射率数据" style="shape=parallelogram;perimeter=parallelogramPerimeter;whiteSpace=wrap;html=1;fixedSize=1;" vertex="1" parent="WIyWlLk6GJQsqaUBKTNV-1">
          <mxGeometry x="120" y="160" width="160" height="40" as="geometry" />
        </mxCell>
        <mxCell id="9kUBxG-Cbkqe4WH1oa9A-24" style="edgeStyle=orthogonalEdgeStyle;rounded=0;orthogonalLoop=1;jettySize=auto;html=1;exitX=0.5;exitY=1;exitDx=0;exitDy=0;entryX=0.5;entryY=0;entryDx=0;entryDy=0;" edge="1" parent="WIyWlLk6GJQsqaUBKTNV-1" source="9kUBxG-Cbkqe4WH1oa9A-14" target="9kUBxG-Cbkqe4WH1oa9A-20">
          <mxGeometry relative="1" as="geometry" />
        </mxCell>
        <mxCell id="9kUBxG-Cbkqe4WH1oa9A-14" value="地形校正" style="rounded=0;whiteSpace=wrap;html=1;" vertex="1" parent="WIyWlLk6GJQsqaUBKTNV-1">
          <mxGeometry x="120" y="240" width="160" height="40" as="geometry" />
        </mxCell>
        <mxCell id="9kUBxG-Cbkqe4WH1oa9A-25" style="edgeStyle=orthogonalEdgeStyle;rounded=0;orthogonalLoop=1;jettySize=auto;html=1;exitX=0.5;exitY=1;exitDx=0;exitDy=0;entryX=0.5;entryY=0;entryDx=0;entryDy=0;" edge="1" parent="WIyWlLk6GJQsqaUBKTNV-1" source="9kUBxG-Cbkqe4WH1oa9A-20" target="9kUBxG-Cbkqe4WH1oa9A-21">
          <mxGeometry relative="1" as="geometry" />
        </mxCell>
        <mxCell id="9kUBxG-Cbkqe4WH1oa9A-20" value="反照率反演" style="rounded=0;whiteSpace=wrap;html=1;" vertex="1" parent="WIyWlLk6GJQsqaUBKTNV-1">
          <mxGeometry x="120" y="320" width="160" height="40" as="geometry" />
        </mxCell>
        <mxCell id="9kUBxG-Cbkqe4WH1oa9A-26" style="edgeStyle=orthogonalEdgeStyle;rounded=0;orthogonalLoop=1;jettySize=auto;html=1;exitX=0.5;exitY=1;exitDx=0;exitDy=0;entryX=0.5;entryY=0;entryDx=0;entryDy=0;" edge="1" parent="WIyWlLk6GJQsqaUBKTNV-1" source="9kUBxG-Cbkqe4WH1oa9A-21">
          <mxGeometry relative="1" as="geometry">
            <mxPoint x="200" y="480" as="targetPoint" />
          </mxGeometry>
        </mxCell>
        <mxCell id="9kUBxG-Cbkqe4WH1oa9A-21" value="站点残差克里金插值" style="rounded=0;whiteSpace=wrap;html=1;" vertex="1" parent="WIyWlLk6GJQsqaUBKTNV-1">
          <mxGeometry x="120" y="400" width="160" height="40" as="geometry" />
        </mxCell>
        <mxCell id="9kUBxG-Cbkqe4WH1oa9A-27" style="edgeStyle=orthogonalEdgeStyle;rounded=0;orthogonalLoop=1;jettySize=auto;html=1;exitX=0.5;exitY=1;exitDx=0;exitDy=0;entryX=0.5;entryY=0;entryDx=0;entryDy=0;" edge="1" parent="WIyWlLk6GJQsqaUBKTNV-1" source="9kUBxG-Cbkqe4WH1oa9A-28" target="9kUBxG-Cbkqe4WH1oa9A-30">
          <mxGeometry relative="1" as="geometry" />
        </mxCell>
        <mxCell id="9kUBxG-Cbkqe4WH1oa9A-28" value="HLS反射率数据" style="shape=parallelogram;perimeter=parallelogramPerimeter;whiteSpace=wrap;html=1;fixedSize=1;" vertex="1" parent="WIyWlLk6GJQsqaUBKTNV-1">
          <mxGeometry x="800" y="180" width="160" height="40" as="geometry" />
        </mxCell>
        <mxCell id="9kUBxG-Cbkqe4WH1oa9A-29" style="edgeStyle=orthogonalEdgeStyle;rounded=0;orthogonalLoop=1;jettySize=auto;html=1;exitX=0.5;exitY=1;exitDx=0;exitDy=0;entryX=0.5;entryY=0;entryDx=0;entryDy=0;" edge="1" parent="WIyWlLk6GJQsqaUBKTNV-1" source="9kUBxG-Cbkqe4WH1oa9A-30">
          <mxGeometry relative="1" as="geometry">
            <mxPoint x="880" y="340" as="targetPoint" />
          </mxGeometry>
        </mxCell>
        <mxCell id="9kUBxG-Cbkqe4WH1oa9A-30" value="反照率反演" style="rounded=0;whiteSpace=wrap;html=1;" vertex="1" parent="WIyWlLk6GJQsqaUBKTNV-1">
          <mxGeometry x="800" y="260" width="160" height="40" as="geometry" />
        </mxCell>
        <mxCell id="9kUBxG-Cbkqe4WH1oa9A-58" style="edgeStyle=orthogonalEdgeStyle;rounded=0;orthogonalLoop=1;jettySize=auto;html=1;exitX=0.5;exitY=1;exitDx=0;exitDy=0;entryX=0.5;entryY=0;entryDx=0;entryDy=0;" edge="1" parent="WIyWlLk6GJQsqaUBKTNV-1" source="9kUBxG-Cbkqe4WH1oa9A-35" target="9kUBxG-Cbkqe4WH1oa9A-51">
          <mxGeometry relative="1" as="geometry">
            <Array as="points">
              <mxPoint x="880" y="400" />
              <mxPoint x="1080" y="400" />
            </Array>
          </mxGeometry>
        </mxCell>
        <mxCell id="9kUBxG-Cbkqe4WH1oa9A-35" value="地表反照率" style="shape=parallelogram;perimeter=parallelogramPerimeter;whiteSpace=wrap;html=1;fixedSize=1;" vertex="1" parent="WIyWlLk6GJQsqaUBKTNV-1">
          <mxGeometry x="800" y="340" width="160" height="40" as="geometry" />
        </mxCell>
        <mxCell id="9kUBxG-Cbkqe4WH1oa9A-36" style="edgeStyle=orthogonalEdgeStyle;rounded=0;orthogonalLoop=1;jettySize=auto;html=1;exitX=0.5;exitY=1;exitDx=0;exitDy=0;entryX=0.5;entryY=0;entryDx=0;entryDy=0;" edge="1" parent="WIyWlLk6GJQsqaUBKTNV-1" source="9kUBxG-Cbkqe4WH1oa9A-37" target="9kUBxG-Cbkqe4WH1oa9A-39">
          <mxGeometry relative="1" as="geometry" />
        </mxCell>
        <mxCell id="9kUBxG-Cbkqe4WH1oa9A-37" value="山顶直/散射观测值" style="shape=parallelogram;perimeter=parallelogramPerimeter;whiteSpace=wrap;html=1;fixedSize=1;" vertex="1" parent="WIyWlLk6GJQsqaUBKTNV-1">
          <mxGeometry x="1000" y="180" width="160" height="40" as="geometry" />
        </mxCell>
        <mxCell id="9kUBxG-Cbkqe4WH1oa9A-38" style="edgeStyle=orthogonalEdgeStyle;rounded=0;orthogonalLoop=1;jettySize=auto;html=1;exitX=0.5;exitY=1;exitDx=0;exitDy=0;entryX=0.5;entryY=0;entryDx=0;entryDy=0;" edge="1" parent="WIyWlLk6GJQsqaUBKTNV-1" source="9kUBxG-Cbkqe4WH1oa9A-39" target="9kUBxG-Cbkqe4WH1oa9A-40">
          <mxGeometry relative="1" as="geometry" />
        </mxCell>
        <mxCell id="9kUBxG-Cbkqe4WH1oa9A-39" value="判断晴天/云天" style="rhombus;whiteSpace=wrap;html=1;" vertex="1" parent="WIyWlLk6GJQsqaUBKTNV-1">
          <mxGeometry x="1000" y="260" width="160" height="50" as="geometry" />
        </mxCell>
        <mxCell id="9kUBxG-Cbkqe4WH1oa9A-62" style="edgeStyle=orthogonalEdgeStyle;rounded=0;orthogonalLoop=1;jettySize=auto;html=1;exitX=0.5;exitY=1;exitDx=0;exitDy=0;entryX=0.5;entryY=0;entryDx=0;entryDy=0;" edge="1" parent="WIyWlLk6GJQsqaUBKTNV-1" source="9kUBxG-Cbkqe4WH1oa9A-40" target="9kUBxG-Cbkqe4WH1oa9A-51">
          <mxGeometry relative="1" as="geometry" />
        </mxCell>
        <mxCell id="9kUBxG-Cbkqe4WH1oa9A-40" value="研究区平地直/散射值" style="shape=parallelogram;perimeter=parallelogramPerimeter;whiteSpace=wrap;html=1;fixedSize=1;" vertex="1" parent="WIyWlLk6GJQsqaUBKTNV-1">
          <mxGeometry x="1000" y="340" width="160" height="40" as="geometry" />
        </mxCell>
        <mxCell id="9kUBxG-Cbkqe4WH1oa9A-60" style="edgeStyle=orthogonalEdgeStyle;rounded=0;orthogonalLoop=1;jettySize=auto;html=1;exitX=0.5;exitY=1;exitDx=0;exitDy=0;entryX=0.5;entryY=0;entryDx=0;entryDy=0;" edge="1" parent="WIyWlLk6GJQsqaUBKTNV-1" source="9kUBxG-Cbkqe4WH1oa9A-43" target="9kUBxG-Cbkqe4WH1oa9A-51">
          <mxGeometry relative="1" as="geometry">
            <Array as="points">
              <mxPoint x="1280" y="400" />
              <mxPoint x="1080" y="400" />
            </Array>
          </mxGeometry>
        </mxCell>
        <mxCell id="9kUBxG-Cbkqe4WH1oa9A-43" value="DEM" style="shape=parallelogram;perimeter=parallelogramPerimeter;whiteSpace=wrap;html=1;fixedSize=1;" vertex="1" parent="WIyWlLk6GJQsqaUBKTNV-1">
          <mxGeometry x="1200" y="340" width="160" height="40" as="geometry" />
        </mxCell>
        <mxCell id="9kUBxG-Cbkqe4WH1oa9A-50" style="edgeStyle=orthogonalEdgeStyle;rounded=0;orthogonalLoop=1;jettySize=auto;html=1;exitX=0.5;exitY=1;exitDx=0;exitDy=0;" edge="1" parent="WIyWlLk6GJQsqaUBKTNV-1" target="9kUBxG-Cbkqe4WH1oa9A-49">
          <mxGeometry relative="1" as="geometry">
            <mxPoint x="1080" y="480" as="sourcePoint" />
          </mxGeometry>
        </mxCell>
        <mxCell id="9kUBxG-Cbkqe4WH1oa9A-52" style="edgeStyle=orthogonalEdgeStyle;rounded=0;orthogonalLoop=1;jettySize=auto;html=1;exitX=0.5;exitY=1;exitDx=0;exitDy=0;" edge="1" parent="WIyWlLk6GJQsqaUBKTNV-1" source="9kUBxG-Cbkqe4WH1oa9A-49">
          <mxGeometry relative="1" as="geometry">
            <mxPoint x="1080.344827586207" y="600" as="targetPoint" />
          </mxGeometry>
        </mxCell>
        <mxCell id="9kUBxG-Cbkqe4WH1oa9A-49" value="站点残差克里金插值" style="rounded=0;whiteSpace=wrap;html=1;" vertex="1" parent="WIyWlLk6GJQsqaUBKTNV-1">
          <mxGeometry x="1000" y="520" width="160" height="40" as="geometry" />
        </mxCell>
        <mxCell id="9kUBxG-Cbkqe4WH1oa9A-51" value="LESS模拟下行短波初始值" style="rounded=0;whiteSpace=wrap;html=1;" vertex="1" parent="WIyWlLk6GJQsqaUBKTNV-1">
          <mxGeometry x="1000" y="440" width="160" height="40" as="geometry" />
        </mxCell>
        <mxCell id="9kUBxG-Cbkqe4WH1oa9A-54" value="瞬时下行短波辐射估算值" style="rounded=1;whiteSpace=wrap;html=1;arcSize=31;" vertex="1" parent="WIyWlLk6GJQsqaUBKTNV-1">
          <mxGeometry x="1000" y="600" width="160" height="40" as="geometry" />
        </mxCell>
        <mxCell id="9kUBxG-Cbkqe4WH1oa9A-81" style="edgeStyle=orthogonalEdgeStyle;rounded=0;orthogonalLoop=1;jettySize=auto;html=1;exitX=0.5;exitY=1;exitDx=0;exitDy=0;entryX=0.5;entryY=0;entryDx=0;entryDy=0;" edge="1" parent="WIyWlLk6GJQsqaUBKTNV-1" source="9kUBxG-Cbkqe4WH1oa9A-65" target="9kUBxG-Cbkqe4WH1oa9A-4">
          <mxGeometry relative="1" as="geometry" />
        </mxCell>
        <mxCell id="9kUBxG-Cbkqe4WH1oa9A-65" value="站点观测值" style="shape=parallelogram;perimeter=parallelogramPerimeter;whiteSpace=wrap;html=1;fixedSize=1;" vertex="1" parent="WIyWlLk6GJQsqaUBKTNV-1">
          <mxGeometry x="200" y="-440" width="160" height="40" as="geometry" />
        </mxCell>
        <mxCell id="9kUBxG-Cbkqe4WH1oa9A-78" style="edgeStyle=orthogonalEdgeStyle;rounded=0;orthogonalLoop=1;jettySize=auto;html=1;exitX=1;exitY=0.5;exitDx=0;exitDy=0;entryX=0.5;entryY=0;entryDx=0;entryDy=0;" edge="1" parent="WIyWlLk6GJQsqaUBKTNV-1" source="9kUBxG-Cbkqe4WH1oa9A-66" target="9kUBxG-Cbkqe4WH1oa9A-69">
          <mxGeometry relative="1" as="geometry">
            <Array as="points">
              <mxPoint x="800" y="-420" />
            </Array>
          </mxGeometry>
        </mxCell>
        <mxCell id="9kUBxG-Cbkqe4WH1oa9A-82" style="edgeStyle=orthogonalEdgeStyle;rounded=0;orthogonalLoop=1;jettySize=auto;html=1;exitX=0.5;exitY=1;exitDx=0;exitDy=0;" edge="1" parent="WIyWlLk6GJQsqaUBKTNV-1" source="9kUBxG-Cbkqe4WH1oa9A-66">
          <mxGeometry relative="1" as="geometry">
            <mxPoint x="480" y="-350" as="targetPoint" />
          </mxGeometry>
        </mxCell>
        <mxCell id="9kUBxG-Cbkqe4WH1oa9A-66" value="全天空图像" style="shape=parallelogram;perimeter=parallelogramPerimeter;whiteSpace=wrap;html=1;fixedSize=1;" vertex="1" parent="WIyWlLk6GJQsqaUBKTNV-1">
          <mxGeometry x="600" y="-440" width="160" height="40" as="geometry" />
        </mxCell>
        <mxCell id="9kUBxG-Cbkqe4WH1oa9A-88" style="edgeStyle=orthogonalEdgeStyle;rounded=0;orthogonalLoop=1;jettySize=auto;html=1;exitX=0.5;exitY=1;exitDx=0;exitDy=0;" edge="1" parent="WIyWlLk6GJQsqaUBKTNV-1" source="9kUBxG-Cbkqe4WH1oa9A-69">
          <mxGeometry relative="1" as="geometry">
            <mxPoint x="800.344827586207" y="-230" as="targetPoint" />
          </mxGeometry>
        </mxCell>
        <mxCell id="9kUBxG-Cbkqe4WH1oa9A-90" style="edgeStyle=orthogonalEdgeStyle;rounded=0;orthogonalLoop=1;jettySize=auto;html=1;exitX=0;exitY=0.5;exitDx=0;exitDy=0;" edge="1" parent="WIyWlLk6GJQsqaUBKTNV-1" source="9kUBxG-Cbkqe4WH1oa9A-69">
          <mxGeometry relative="1" as="geometry">
            <mxPoint x="700" y="-230" as="targetPoint" />
          </mxGeometry>
        </mxCell>
        <mxCell id="9kUBxG-Cbkqe4WH1oa9A-69" value="判断山顶晴/阴" style="rhombus;whiteSpace=wrap;html=1;" vertex="1" parent="WIyWlLk6GJQsqaUBKTNV-1">
          <mxGeometry x="720" y="-350" width="160" height="60" as="geometry" />
        </mxCell>
        <mxCell id="9kUBxG-Cbkqe4WH1oa9A-85" value="晴天" style="text;html=1;strokeColor=none;fillColor=none;align=center;verticalAlign=middle;whiteSpace=wrap;rounded=0;" vertex="1" parent="WIyWlLk6GJQsqaUBKTNV-1">
          <mxGeometry x="470" y="-280" width="60" height="30" as="geometry" />
        </mxCell>
        <mxCell id="9kUBxG-Cbkqe4WH1oa9A-87" value="云天" style="text;html=1;strokeColor=none;fillColor=none;align=center;verticalAlign=middle;whiteSpace=wrap;rounded=0;" vertex="1" parent="WIyWlLk6GJQsqaUBKTNV-1">
          <mxGeometry x="330" y="-280" width="60" height="30" as="geometry" />
        </mxCell>
        <mxCell id="9kUBxG-Cbkqe4WH1oa9A-89" value="晴" style="text;html=1;strokeColor=none;fillColor=none;align=center;verticalAlign=middle;whiteSpace=wrap;rounded=0;" vertex="1" parent="WIyWlLk6GJQsqaUBKTNV-1">
          <mxGeometry x="790" y="-280" width="60" height="30" as="geometry" />
        </mxCell>
        <mxCell id="9kUBxG-Cbkqe4WH1oa9A-91" value="云" style="text;html=1;strokeColor=none;fillColor=none;align=center;verticalAlign=middle;whiteSpace=wrap;rounded=0;" vertex="1" parent="WIyWlLk6GJQsqaUBKTNV-1">
          <mxGeometry x="650" y="-280" width="60" height="30" as="geometry" />
        </mxCell>
        <mxCell id="9kUBxG-Cbkqe4WH1oa9A-92" value="地表反照率" style="rounded=1;whiteSpace=wrap;html=1;strokeColor=#000000;strokeWidth=1;fillColor=default;arcSize=27;" vertex="1" parent="WIyWlLk6GJQsqaUBKTNV-1">
          <mxGeometry x="120" y="480" width="160" height="40" as="geometry" />
        </mxCell>
      </root>
    </mxGraphModel>
  </diagram>
</mxfile>
